<?xml version="1.0" encoding="utf-8"?>
<!DOCTYPE svg PUBLIC "-//W3C//DTD SVG 1.1 Tiny//EN" "http://www.w3.org/Graphics/SVG/1.1/DTD/svg11-tiny.dtd">
<svg width="475" height="620" xmlns="http://www.w3.org/2000/svg" xmlns:svg="http://www.w3.org/2000/svg">
<polygon fill="#FF8B00" points="408.794,809.538 477.034,843.442 676.666,743.894 676.666,674.445 545.171,739.671 545.083,454.454	477.044,488.502 408.82,454.497 "/>
<polygon fill="#CF8133" points="408.783,809.495 477.034,843.599 477.034,488.454 408.808,454.453 "/>
<rect x="473.938" y="474.943" fill="#F7A23D" width="6.193" height="374.995"/>
<polygon fill="#0071B2" points="235.67,735.794 303.896,769.756 303.896,544.35 379.021,581.723 379.021,512.593 303.807,475.013 303.807,402.116 477.034,488.505 477.034,419.454 235.67,299.009 "/>
<polygon fill="#415468" points="362.693,445.65 303.766,475.03 303.766,402.092 408.82,454.498 408.819,468.671 "/>
<polygon fill="#415468" points="303.616,769.169 303.616,786.21 220.72,744.85 220.72,289.798 305.386,247.619 560.865,375.031 560.865,649.025 610.164,624.147 691.734,664.921 691.746,752.716 477.033,859.778 393.469,818.155 393.476,741.646 303.616,786.21 303.616,769.169 303.616,544.233 379.021,581.723 379.021,512.593 408.783,497.728 408.754,808.766 476.916,842.854 676.666,743.197 676.666,674.445 610.164,641.563 544.962,673.858 544.962,454.563 477.033,488.505 477.033,419.454 546.489,384.99 305.478,264.832 236.14,299.126 236.262,735.552 "/>
</svg>
